<?xml version="1.0" standalone="no"?>
<svg viewBox="0 0 200 200" xmlns="http://www.w3.org/2000/svg">
  <path fill="#EA5C4B" d="M38.3,-66.7C50.5,-59.3,61.8,-50.8,71.8,-39.5C81.7,-28.2,90.3,-14.1,89.9,-0.3C89.4,13.6,80,27.1,71.5,41.1C63.1,55,55.7,69.3,43.9,75.8C32.2,82.2,16.1,80.8,1.1,79C-14,77.2,-28,74.9,-39.4,68.3C-50.8,61.6,-59.7,50.6,-66.8,38.5C-73.8,26.4,-79,13.2,-80.1,-0.6C-81.1,-14.5,-78.1,-28.9,-70.8,-40.6C-63.5,-52.2,-51.9,-61,-39.4,-68.2C-26.9,-75.3,-13.4,-80.8,-0.2,-80.5C13.1,-80.2,26.1,-74,38.3,-66.7Z" transform="translate(100 100)" />
</svg>
