<svg id="Layer_2" data-name="Layer 2" xmlns="http://www.w3.org/2000/svg" xmlns:xlink="http://www.w3.org/1999/xlink" viewBox="0 0 400 300" width="406" height="306" class="illustration"><defs><linearGradient id="linear-gradient" x1="124.98" y1="190.11" x2="155.38" y2="161.76" gradientUnits="userSpaceOnUse"><stop offset="0" stop-color="#ff65a7"></stop><stop offset="1" stop-color="#4f1f34"></stop></linearGradient><linearGradient id="linear-gradient-2" x1="141.11" y1="251.73" x2="156.97" y2="236.95" xlink:href="#linear-gradient"></linearGradient><linearGradient id="linear-gradient-3" x1="256.48" y1="199.03" x2="277.81" y2="165.71" xlink:href="#linear-gradient"></linearGradient><linearGradient id="linear-gradient-4" x1="333.37" y1="198.8" x2="361.62" y2="173.91" xlink:href="#linear-gradient"></linearGradient></defs><title>PP</title><path d="M194.28,287.39,14.56,181.17C8.84,178,3.93,172.68,9.51,169.22l180.37-104c2.71-1.68,6.82-2.78,9.57-1.18L388.11,173.58c5.72,3.32,6.75,12.6,1,15.93L218,287.22A23.9,23.9,0,0,1,194.28,287.39Z" fill="#ff65a7"></path><polyline points="162.85 180.95 123.74 206.05 101.63 185.73 156.53 153.88" fill="url(#linear-gradient)"></polyline><polyline points="167.57 243.56 147.84 259.94 127.51 247.92 137.98 241.24 161.51 237.23" fill="url(#linear-gradient-2)"></polyline><polyline points="287.13 193.86 279.33 225.38 221.48 191.65 254.17 174.3" fill="url(#linear-gradient-3)"></polyline><polyline points="369.7 186.37 336.71 206.05 317.34 193.34 350.03 175.99" fill="url(#linear-gradient-4)"></polyline><path d="M181.35,142.08l19,9.13a4.36,4.36,0,0,1,.31,7.7l-44.95,26.22a4.36,4.36,0,0,1-5.87-1.41l-10.92-17" fill="#56403d"></path><path d="M78.18,98.16,229.43,11a6.82,6.82,0,0,1,10.23,5.91v90.64a5.67,5.67,0,0,1-2.84,4.91L75.6,205.55a3.66,3.66,0,0,1-5.49-3.17V112.12A16.1,16.1,0,0,1,78.18,98.16Z" fill="#FFFFFF"></path><path d="M229.41,17.88,82.77,102.26a10.28,10.28,0,0,0-5.15,8.91v67.95a3.71,3.71,0,0,0,5.56,3.22L232.73,96.51a3.66,3.66,0,0,0,1.84-3.17V20.87A3.44,3.44,0,0,0,229.41,17.88Z" fill="#fff"></path><path d="M218.55,41.42V99.79a.5.5,0,0,1-1,0V41.42A.5.5,0,0,1,218.55,41.42Z" fill="#4be2c5"></path><path d="M196.55,54.8v58.37a.5.5,0,0,1-1,0V54.8A.5.5,0,0,1,196.55,54.8Z" fill="#4be2c5"></path><path d="M177.95,65.73V124.1a.5.5,0,0,1-1,0V65.73A.5.5,0,0,1,177.95,65.73Z" fill="#4be2c5"></path><path d="M151.65,78.89v58.37a.5.5,0,0,1-1,0V78.89A.5.5,0,0,1,151.65,78.89Z" fill="#4be2c5"></path><path d="M135.86,88.59V147a.5.5,0,0,1-1,0V88.59A.5.5,0,0,1,135.86,88.59Z" fill="#4be2c5"></path><path d="M109.26,102.53V160.9a.5.5,0,0,1-1,0V102.53A.5.5,0,0,1,109.26,102.53Z" fill="#4be2c5"></path><path d="M218.12,80.81v7.34L196.6,78.53S178.12,109,177.87,109l-26.43-6.29L136.1,128.9l-37.21-7.84,1.31-5,32.74,6,17.21-26.58,24.26,8.22,21.45-32.36Z" fill="#f26250"></path><polygon points="108.76 107.63 101.7 132.73 91.07 116.18 108.76 107.63" fill="#f26250"></polygon><path d="M222,69.94c.56.4,1.11.82,1.66,1.23a2.3,2.3,0,0,1-.29-1.64,1,1,0,0,1,1.79-.5q2,2.26,4,4.5c0-.14,0-.28.06-.41a6.37,6.37,0,0,1,.68-2.53c.92-1.26,1.88,0,2,1.35.1,1.77-.38,3.42.48,5.13a7.2,7.2,0,0,0,2.18,2.1q1.24,1,2.52,1.9a1,1,0,0,1-.71,1.79,1,1,0,0,1-.72,1.55c.15.84-.78,1.75-1.53,1a39,39,0,0,0-6-4.76q-3.37-1.58-6.64-3.34c-1.12-.6-.42-2.45.75-1.87l.17.09-1.92-1.18c-1-.59,0-2.29,1-1.73l.23.13h0l0,0,.64.37-.85-.72c-.52-.45-1-.82-1.09-1.55A1,1,0,0,1,222,69.94Z" fill="#ffcea1"></path><path d="M228.79,74.49a.22.22,0,0,1,.35.27,3.48,3.48,0,0,0-.34,3.7c.13.26-.28.43-.41.17A3.93,3.93,0,0,1,228.79,74.49Z" fill="#007058"></path><path d="M223.66,70.8q2,1.51,3.91,3.17c.21.19-.05.55-.27.35q-1.89-1.67-3.91-3.17A.22.22,0,0,1,223.66,70.8Z" fill="#007058"></path><path d="M221.77,72.5l4.46,2.64c.25.15,0,.5-.27.35l-4.46-2.64C221.25,72.7,221.52,72.35,221.77,72.5Z" fill="#007058"></path><path d="M221.77,75q1.87.89,3.77,1.72c.26.11.1.53-.17.41q-1.9-.83-3.77-1.72C221.35,75.25,221.51,74.83,221.77,75Z" fill="#007058"></path><polygon points="301.56 86.12 295.78 75.64 292.44 70.25 305.34 63.99 313.61 80.96 301.56 86.12" fill="#f26250"></polygon><path d="M288.11,84.19l3.67-4.08a5.45,5.45,0,0,0,.8-.89,3.94,3.94,0,0,0,.25-1.72,11,11,0,0,1,.48-2.48,1,1,0,0,1,2,.27c0,.52,0,1-.05,1.56l.9-.8c1.21,2.19,2.44,4.36,3.76,6.49-.72,0-1.45.05-2.18,0a26.06,26.06,0,0,0-6.87,5.93.93.93,0,0,1-1.58-.32,1.37,1.37,0,0,1-.3-.1l0,0a1,1,0,0,1-.36-1.37l0,0a.83.83,0,0,1,.49-.47c.2-.23.4-.47.59-.72l-.12.13C288.66,86.56,287.24,85.14,288.11,84.19Z" fill="#ffcea1"></path><path d="M295.6,81.06a4.27,4.27,0,0,0,.76-1.9,3.11,3.11,0,0,0-.74-1.86c-.17-.24.23-.47.39-.23a3.5,3.5,0,0,1,.8,2.09,4.7,4.7,0,0,1-.82,2.13A.23.23,0,0,1,295.6,81.06Z" fill="#007058"></path><path d="M253.35,166s-.13,6.79-.93,7.86-7.93,4.85-8.33,6.58.87,4.21,4.26,3.28,11.57-6.23,11.57-6.23V162.78" fill="#534741"></path><path d="M280.63,173.74l.87,7.37s-3.12,11.37-1.87,12.74,5.75,2.87,7.5,0-.75-13.49-.75-13.49l-.12-8" fill="#534741"></path><path d="M264.24,95.73s-8.83,35.86-9.23,41.38-3,32.25-3,32.25,8.39,3.73,14.05,1.84l4.42-33.71,5-35.34S266.35,93.18,264.24,95.73Z" fill="#2e997f"></path><path d="M281.2,104.19c6.23,26.45,7,46.43,10.15,69.56,0,0-13.51,4.93-16.5.15-2-23.57-3.65-47.2-4.4-70.85Z" fill="#2e997f"></path><path d="M279.33,76.89c-.1-.11-.2-.22-.31-.32-2-1.75-6.11-1-8.94-.24a1.76,1.76,0,0,1-1.33.54h-.25a2.12,2.12,0,0,1-1.11,0c-2,0-5.54-1.4-8.41.92s-.16,5.91.19,9.07c.18,1.67.43,3.29.64,4.89,1.85,2.05,3.66,4.57,5.34,5.45,1.18.61,2.87,2.62,4.12,2.77.46.06.88-.27,1.32-.43,1.7-.62,2.74-8.68,4.3-8.1,1.36.51,3.42,6.8,4.76,7.37a11.59,11.59,0,0,0,1.44-.35C281.86,91.25,282.23,83.35,279.33,76.89Z" fill="#ffc963"></path><path d="M273,105.68c3.28-.2,5.1-.25,8.17-1.49l.55-17.32-21.94,4.91s1.84,9.08,2.73,12.91A29.89,29.89,0,0,0,273,105.68Z" fill="#ffc963"></path><polygon points="269.83 77.81 266.98 81.56 265.59 77.17 269.83 77.81" fill="#2e997f"></polygon><polygon points="267.06 79.89 269.83 98.2 266.98 103.05 264.29 96.98 267.06 79.89" fill="#2e997f"></polygon><path d="M272.55,74.64c.26.66.79,1.8,1.12,2.43l-3.54,4.49-2.73-3.88-2.55,2.76-1.16-6.17A27,27,0,0,1,272.55,74.64Z" fill="#f4af40"></path><path d="M263.48,68.07c-.8,3.78-.17,9.49,3.92,9.62s6.51-2.77,6.24-7.14c-.22-3.47-2-8.89-6.7-7.32a4.82,4.82,0,0,0-2.62,2.41A9.69,9.69,0,0,0,263.48,68.07Z" fill="#ffcea1"></path><path d="M263.18,68.9a6,6,0,0,1-3.24-5.8c.22-2.32,2.48-5.28,5.08-4.18,1.77.75,1.29.81,1.29.81a3.66,3.66,0,0,1,3.44-1.24c2.47.21,2.9,1.72,2.9,1.72s2.81.94,3.55,2.72c.85,2-1.07,8.14-2,9.84s-1.45-1.76-1.77-3.16a3.47,3.47,0,0,0-2.07-2.54c-1.52-.42-2.27.94-3.48,1.51A4.34,4.34,0,0,1,263.18,68.9Z" fill="#534741"></path><path d="M278.86,76.42c1.25.6,5.46,10.61,6.06,10.59s4.22-7.32,5.43-7.41,4.46,3.62,5.31,4.6-8.44,16.54-12.66,17.26-6-4.34-6-4.34" fill="#ffc963"></path><path d="M247.22,84.23c-1.46.06-8.8-5.24-13.22-8.35a27.73,27.73,0,0,0-6.48,5.94c4.65,4.34,15.52,13.34,20,13.56,5.71.27,15.69-4.35,15.69-4.35L259,77.81S249.3,84.15,247.22,84.23Z" fill="#ffc963"></path><path d="M156.85,144.8a.46.46,0,0,1-.19-.37l-.11-.11-.14-.12a.85.85,0,0,0,.24,0c-.06-1.45-.18-2.9-.32-4.34v0s-.37,1.94-.37,1.93-1.13-1.39-1.13-1.43c-1.21-1.42-.88-3.56-2-5.07v-.08a4.87,4.87,0,0,0-1.68-2.62c-.63-.52-1.48.12-1.55.8a3.33,3.33,0,0,0,0,.84,26.23,26.23,0,0,1-1.54-2.51c-.61-1.14-2.33-.13-1.73,1,.08.15.16.28.25.43-.79-.92-2.45.05-1.68,1.06l.3.4a1.08,1.08,0,0,0-.5,1.7c.18.21.37.41.55.61a1,1,0,0,0,.1,1.16,18,18,0,0,0,3.78,3.57.79.79,0,0,0,.89.08c.35.22.71.44,1.08.62l3.91,3.37A1.09,1.09,0,0,0,156.85,144.8Z" fill="#f7931e"></path><path d="M129.84,137.23l0-.17a10.34,10.34,0,0,0,.94-2.5c.14-.68.34-1.66-.35-2.07a.51.51,0,0,0-.68.18,6,6,0,0,0-1.17,2.82c-.26-.8-.48-2.28-.89-3.32-.1-.61-.21-1.22-.34-1.82-.28-1.26-2.21-.72-1.93.53.09.41.16.83.24,1.25a4.42,4.42,0,0,0,0,1c-.41-1-.86-2-1.36-3-.59-1.14-2.32-.13-1.73,1a31.28,31.28,0,0,1,2.13,5.26c-.65-1.36-1.33-2.7-2.07-4a1,1,0,0,0-1.73,1c.61,1.08,1.18,2.18,1.72,3.28l-1.36-1.61c-.83-1-2.24.44-1.41,1.41l3.32,3.93c.25,2.14,3.87,4.47,3.87,4.47l3.92-2.92C130.91,141.47,129.92,137.51,129.84,137.23Z" fill="#f7931e"></path><path d="M161.51,233v4.2s-8.87-3.29-10.58-1.82c-2.55,2.19,4.74,6.57,12.22,8a8.84,8.84,0,0,0,4.42.13c2.21-.77,1.28-4.11,1.28-5.83s.09-3.62.13-5.42" fill="#56403d"></path><path d="M148.56,238.87v4.2s-8.87-3.29-10.58-1.82c-2.55,2.19,4.74,6.57,12.22,8a8.84,8.84,0,0,0,4.42.13c2.21-.77,1.28-4.11,1.28-5.83s.09-3.62.13-5.42" fill="#56403d"></path><path d="M148.37,164.82s-8.39,56.54-7.48,69.68c0,0,2.19,8.76,21.16,5.84,0,0,1.64-6.57.91-17.69s-2.74-57.82-2.74-57.82Z" fill="#ffc963"></path><path d="M153,231.64l2.86-67.47L168.62,163s3.65,17.51,2.55,25.9,1.28,19.52,1.82,25.35c.49,5.24.69,14.29-1.12,18.34A31.61,31.61,0,0,1,153,231.64Z" fill="#ffc963"></path><path d="M153.66,135.63s-5.29,3.28-5.84,6c0,0,3.71,8.07,3.47,8.39-4.2,5.47,8.39-3.47,8.39-3.47S157.13,138.92,153.66,135.63Z" fill="#FFFFFF"></path><path d="M153.66,135.63s-5.29,3.28-5.84,6c0,0,3.71,8.07,3.47,8.39-4.2,5.47,8.39-3.47,8.39-3.47S157.13,138.92,153.66,135.63Z" fill="#f26250"></path><path d="M157.13,124.23c0,.12-.73,7.52.92,9.15s6.05,1,7.15-.82,2.43-4.13,1.26-6.89S157.33,122.41,157.13,124.23Z" fill="#f7931e"></path><path d="M159.49,129a.74.74,0,0,1,.12-.79,3.58,3.58,0,0,1,2-1.24,1.5,1.5,0,0,1,1.75.94c.51,1.68-2.22,2.17-3.33,2.31a.74.74,0,0,1-.74-.74A.66.66,0,0,1,159.49,129Z" fill="#ffe8e6"></path><path d="M162.86,235a112.82,112.82,0,0,0,1.91-12.81,45.6,45.6,0,0,0,0-6.32,61.55,61.55,0,0,0-.92-6.46,46.88,46.88,0,0,1-.52-11.61c.29-4,.9-7.92,1.28-11.89a42.82,42.82,0,0,0-.43-13.41c-.13-.57.75-.82.88-.24,1.76,7.93.06,16-.68,23.9a47.68,47.68,0,0,0,.23,12.33c.33,2,.74,4,1,6a42,42,0,0,1,.15,6.49,105,105,0,0,1-2,14.28C163.63,235.81,162.75,235.57,162.86,235Z" fill="#fff"></path><path d="M133.05,139.83c7.77,9,12.8,6.55,14.76,7.53,2.69,1.35,3.74-9.85,15.58-9.8.77,0,4.6-1.63,6.62,3.41s0,19.51-1.35,22c-1.19,2.23-9.08,7.57-20.35,1.85l-.17-5.21c0,.16-8.81-1.76-9.57-2.06-3.59-1.41-6.37-4.06-9.13-6.66-.52-.49-7.17-6.9-5.43-7.65C126.69,142.11,130.44,139,133.05,139.83Z" fill="#f26250"></path><path d="M142.55,158.36a14.58,14.58,0,0,0,17.08-5.67c.24-.36.82,0,.58.34a15.25,15.25,0,0,1-17.84,6C142,158.86,142.14,158.21,142.55,158.36Z" fill="#fff"></path><path d="M149.2,146.11a10.84,10.84,0,0,1,2.62-3.7c1.29-1.17,2.88-1.92,4.23-3,.27-.22.66.16.39.39-1.27,1-2.77,1.76-4,2.83a10.44,10.44,0,0,0-2.75,3.78C149.54,146.71,149.07,146.43,149.2,146.11Z" fill="#fff"></path><path d="M157,125.28l2.36,1.24s-1.82,6.93-2.37,8.76,1.64,4.38,8.76,4.56,6.75-10.58,5.11-14.59-6.57-5.84-10.58-4.74A4.13,4.13,0,0,0,157,125.28Z" fill="#b24d16"></path><path d="M349,154.35c-.65.31-.84,1.43-1.05,2-.34,1-.73,1.95-1.11,2.92-2.74,7-5.4,14-6.89,21.41-.34,1.68-.76,3.09.65,4.38,2.52,2.32,6.42,3.18,9.7,3.74a33,33,0,0,0,19.38-2.46,4.54,4.54,0,0,0,2.39-5.55c-2.68-8.08-9-26.89-10.23-27C360.35,153.6,355.82,151.14,349,154.35Z" fill="#FFFFFF"></path><path d="M372.09,180.82c-2.11-6.35-6.48-19.29-8.83-24.64.18,11.78-4,24.54-12.47,32.71a32.91,32.91,0,0,0,18.91-2.52A4.54,4.54,0,0,0,372.09,180.82Z" fill="#328593" opacity="0.4"></path><ellipse cx="355.54" cy="154.97" rx="7.17" ry="2.61" fill="#ce4823"></ellipse><path d="M352.27,154.44a44.84,44.84,0,0,0-2.58-5.77l.12,0c1.67-.62,1.26-3.59,1-4.9a.55.55,0,0,0-1-.13,11.77,11.77,0,0,0-1.21,3.11l-.61-1,0-.06c.15-.43.3-.87.43-1.3a5.7,5.7,0,0,0,.17-.61A11,11,0,0,0,349,140a.64.64,0,0,0-.08-.27.58.58,0,0,0-.65-.31c-.79.15-1.17,1.29-1.37,2a9.86,9.86,0,0,0-.34,2.31q-.74-1-1.55-2l0-.06c.51-1.52,1.34-3.93.22-5.38a.54.54,0,0,0-.53-.14c-.75.18-.92,1-1,1.65a14.41,14.41,0,0,0,.13,2.63q-1.18-1.36-2.48-2.62c-.5-.49-1.27.28-.77.77s.87.87,1.29,1.31c-1.17-.31-2.31-.3-2.68.69-.83,2.2,3.57,1.9,4.82,1.75q.46.57.91,1.16a2.06,2.06,0,0,0-1.14.23,1.17,1.17,0,0,0-.27,2,2.54,2.54,0,0,0,1.49.25h1.7c.29.44.57.9.84,1.35a2.79,2.79,0,0,0-2.17.16,1.16,1.16,0,0,0-.15,1.91c.83.69,2.4.35,3.36.23a.58.58,0,0,0,.21-.07,43.14,43.14,0,0,1,2.33,5.25C351.46,155.38,352.51,155.1,352.27,154.44Z" fill="#1a7a23"></path><path d="M342,138.7s-.47-5.67-5.13-5.76C336.82,132.94,335.47,138.33,342,138.7Z" fill="#1a7a23"></path><path d="M357.89,154.27a47.55,47.55,0,0,1,2.74-6.11l-.13,0c-1.77-.66-1.34-3.81-1-5.2a.58.58,0,0,1,1.05-.14,12.48,12.48,0,0,1,1.28,3.29q.31-.52.64-1l0-.06c-.16-.46-.31-.92-.46-1.38a6,6,0,0,1-.19-.64,11.62,11.62,0,0,1-.46-4,.67.67,0,0,1,.09-.29.61.61,0,0,1,.69-.33c.84.16,1.24,1.37,1.45,2.09a10.46,10.46,0,0,1,.36,2.45q.79-1.1,1.64-2.16l0-.07c-.54-1.62-1.42-4.17-.23-5.71a.57.57,0,0,1,.56-.15c.8.2,1,1,1,1.75a15.28,15.28,0,0,1-.14,2.78q1.26-1.44,2.63-2.78c.53-.52,1.35.3.82.82s-.92.92-1.36,1.39c1.25-.32,2.45-.31,2.84.73.88,2.33-3.79,2-5.11,1.86q-.49.61-1,1.23a2.18,2.18,0,0,1,1.21.24,1.24,1.24,0,0,1,.29,2.17,2.69,2.69,0,0,1-1.58.27h-1.8c-.31.47-.6,1-.89,1.43a3,3,0,0,1,2.3.17,1.23,1.23,0,0,1,.16,2c-.88.73-2.54.37-3.56.24a.62.62,0,0,1-.22-.07,45.74,45.74,0,0,0-2.47,5.56C358.75,155.27,357.64,155,357.89,154.27Z" fill="#1a7a23"></path><path d="M368.83,137.57s.5-6,5.44-6.11C374.27,131.46,375.7,137.18,368.83,137.57Z" fill="#1a7a23"></path><path d="M354.89,153.77a56.61,56.61,0,0,0,.85-7.93l.15,0c2.21.39,3.66-3.11,4.18-4.73a.69.69,0,0,0-1-.77,14.85,14.85,0,0,0-3.29,2.62q0-.73,0-1.45l.07,0c.44-.37.87-.76,1.3-1.15a7.19,7.19,0,0,0,.58-.55,13.83,13.83,0,0,0,2.87-3.83.8.8,0,0,0,.08-.35.73.73,0,0,0-.51-.75c-1-.34-2.09.67-2.74,1.28a12.45,12.45,0,0,0-1.84,2.3q-.15-1.61-.39-3.2l.07-.05c1.53-1.34,4-3.44,3.67-5.73a.68.68,0,0,0-.49-.49c-.94-.28-1.62.48-2.09,1.19a18.19,18.19,0,0,0-1.52,2.95q-.43-2.23-1-4.44a.69.69,0,0,0-1.33.35c.21.75.39,1.5.57,2.25-1.09-1.08-2.33-1.79-3.36-1-2.3,1.87,2.68,4.34,4.14,5,.09.61.18,1.22.25,1.84a2.6,2.6,0,0,0-1.39-.48c-1.13,0-2.14.91-1.6,2.05a3.2,3.2,0,0,0,1.46,1.22l1.86,1.06c0,.67.05,1.34.06,2a3.53,3.53,0,0,0-2.46-1.21,1.47,1.47,0,0,0-1.37,2c.47,1.28,2.39,1.9,3.52,2.38a.74.74,0,0,0,.27.06,54.46,54.46,0,0,1-.8,7.2C353.41,154.28,354.73,154.64,354.89,153.77Z" fill="#1a7a23"></path><path d="M353.66,130s3.1-6.48-1.93-9.55C351.73,120.49,346.83,125.52,353.66,130Z" fill="#1a7a23"></path></svg>