<svg id="Layer_1" data-name="Layer 1" xmlns="http://www.w3.org/2000/svg" viewBox="0 0 400 300" width="406" height="306" class="illustration"><title>_</title><path d="M289.9,64.86c32.67,10.56,58,40.25,64.59,77.39,5.54,31.29-3.66,69.77-57.34,87.63-54.79,18.24-208,27-236.49-23.72S38.17,90.31,96.59,67.23C137.54,51.05,226.09,44.22,289.9,64.86Z" fill="#e6e6e6" opacity="0.3"></path><path d="M71.05,197.56s10.4-48.92,36.56-48.92,40.08,76.9-23.56,85.26Z" fill="#f4a28c"></path><path d="M71.05,197.56s10.4-48.92,36.56-48.92,40.08,76.9-23.56,85.26Z" opacity="0.1"></path><rect x="93.95" y="68.4" width="224.69" height="144.37" fill="#68e1fd"></rect><rect x="93.95" y="68.4" width="224.69" height="144.36" fill="#fff" opacity="0.46"></rect><rect x="112.21" y="81.28" width="188.16" height="116.28" fill="#fff"></rect><path d="M131.06,180.13c-4.28,9.91-17.3,15.94-17.5,29,0,1.21,0,2.44,0,3.67H93.94v-5.51l30.26-43.73S135.34,170.2,131.06,180.13Z" opacity="0.1"></path><path d="M91.55,179.39s20.19-20.65,28.91-18.82c7.2,1.52,7.21,15.84-8.47,27.77a27.78,27.78,0,0,0-11,20.29c-.45,6.66-2.64,14.59-9.41,20.58-14.23,12.6-24.79,1.63-23.41-15.38S70.44,191.78,91.55,179.39Z" fill="#f4a28c"></path><polygon points="103.72 247.97 104.83 232.6 66.28 220.92 58.19 247.97 103.72 247.97" fill="#68e1fd"></polygon><polygon points="103.72 247.97 104.83 232.6 86.42 227.02 83.76 247.97 103.72 247.97" opacity="0.1"></polygon><circle cx="102.57" cy="159.68" r="3.05" opacity="0.1"></circle><rect x="86.78" y="133.17" width="32.23" height="2.77" rx="1.04" transform="translate(-31.65 237.45) rotate(-90)" opacity="0.1"></rect><circle cx="310.55" cy="140.58" r="4.51" opacity="0.1"></circle><rect x="180.51" y="172.06" width="51.56" height="11.01" rx="4.97" fill="#e6e6e6"></rect><rect x="129.61" y="120.55" width="164.21" height="32.78" rx="16.39" fill="#e6e6e6"></rect><path d="M220.9,148.58c-2.28-1.71-4.54-3.44-6.64-5.36l-9.88,8.51-25.63-31.46-49.39,47.78L137,176l40.79-39.46L203,167.44l20.47-17.64A6.47,6.47,0,0,1,220.9,148.58Z" fill="#68e1fd"></path><path d="M278.61,212.76l-30.4-.2c-5-12.8-3-20.71-6.17-33.54-6.18-24.89-23.24-3.94-37.74-28.46-5.35-9-5.66-20.61-1.17-30.81,2.3-5.22,2.62-5.58,8.51-7.62a12.63,12.63,0,0,1,5.5-.7q-1.32,5.55-2.63,11.09c-1,4.26-2,8.57-1.94,12.94s1.4,8.89,4.47,12,7.75,4.54,12.22,5a15.23,15.23,0,0,0,8.23-1c5.11-2.47,8.45-7.45,10-12.8a35.27,35.27,0,0,0,.9-13.5c-.52-4.86-2.2-8.73-6.35-11.49a24.64,24.64,0,0,0-16.71-3.86c.52-3.23,3.53-5.61,6.72-6.33,4-.88,8.22.17,11.91,1.63,1.46.59,12.26,4.66,12.4,5.82l2.46,19.63a5.14,5.14,0,0,1-1.45,4.89c-4.21,5.47-8.38,10.95-12.56,16.44l10.68,24.35Z" opacity="0.12"></path><path d="M211.28,137.76l.83-.26v-1.19c0-.13-.22-.38-.25-.36-.51.21-.77-.15-.71-.47s.55-.51.87-.77c.06-.05.19,0,.35-.05l-.12-.62c.87-.82,1.21-1.43,1-1.76-.51-.71-1.6-1.14-2.09-.83-.76.5-.76.89-.21,1.93l-2.18,3a.93.93,0,0,0-.52.24c-.09.11.15.47.23.71l.34.92,4,.63Z" fill="#68e1fd"></path><path d="M215.51,137.11v-1.52a9.75,9.75,0,0,1-1-1c-.52-.6-1.07-.18-1.52,0s-.39.62.07.9c.08,0,.11.21.11.32,0,.38-.1,1,.07,1.08a10.24,10.24,0,0,0,2.09.76c.13,0,.34-.26.51-.4Z" fill="#68e1fd"></path><path d="M262.6,168.1a2.4,2.4,0,0,0-3.05-1c-1.2.6-2.37,1.28-3.69,2l1.83.21c.4-.47.64-1,1-1.17a6.65,6.65,0,0,1,2.29-.76C261.48,167.32,262,167.8,262.6,168.1Z" fill="#68e1fd"></path><path d="M256,170.11l-1.53.14.76-.88c-1.45-.39-3,.17-3,1.07C253.56,170.33,254.84,171,256,170.11Z" fill="#68e1fd"></path><path d="M260.42,132c.54,0,1,.2,1.22,0,.54-.47.89-.09,1.36.07a5.53,5.53,0,0,0,1.52,0c-1-1.64-1.31-1.73-2.59-1l-.26.14Z" fill="#68e1fd"></path><rect x="245.58" y="150.84" width="8.9" height="25.92" transform="translate(544.28 216.4) rotate(156.91)" fill="#F7B11B"></rect><rect x="245.58" y="150.84" width="8.9" height="25.92" transform="translate(544.28 216.4) rotate(156.91)" opacity="0.08"></rect><rect x="251.87" y="167.81" width="13.7" height="33.3" transform="translate(569.06 252.66) rotate(156.91)" fill="#24285b"></rect><path d="M262.72,116.94c-.1-.23-.2-.46-.31-.69a29.18,29.18,0,1,0-15.1,39,29.51,29.51,0,0,0,3.23-1.62A29.19,29.19,0,0,0,262.72,116.94ZM244,147.37a20.67,20.67,0,0,1-25.43-7.81,20.1,20.1,0,0,1-1.64-3.08,20.63,20.63,0,0,1,38-16.18,19.43,19.43,0,0,1,.7,1.88A20.64,20.64,0,0,1,244,147.37Z" fill="#F7B11B"></path><path d="M300.73,216.11s-7.1-56.16-28.18-58.06-9.64,32.79-20,31.22-12.51,22.78,25.88,39.21Z" fill="#f4a28c"></path><polygon points="328.25 247.97 301.15 210.5 282.57 220.83 270.43 227.58 277.52 247.97 328.25 247.97" fill="#68e1fd"></polygon><path d="M291.89,84.07l-8.81,27.79-6.7-7.65-14,12-6.88,5.93-28.71,24.74a20.47,20.47,0,0,1-8.3-7.36l30.94-26.67,6.54-5.64,13.14-11.32-6.66-7.6Z" fill="#68e1fd"></path><path d="M295.83,248c-5.14-10.46-9.88-20.14-13.26-27.14l-12.14,6.75L277.52,248Z" opacity="0.12"></path><path d="M134.38,102.8l2.53-.16a1.89,1.89,0,0,0,.33.94,1.41,1.41,0,0,0,1.17.52,1.29,1.29,0,0,0,.88-.27.77.77,0,0,0,.31-.61.79.79,0,0,0-.29-.6,3.42,3.42,0,0,0-1.36-.5,5.73,5.73,0,0,1-2.49-1,2.11,2.11,0,0,1-.75-1.66,2.21,2.21,0,0,1,.38-1.25,2.64,2.64,0,0,1,1.15-.93,5.54,5.54,0,0,1,2.12-.33,4.33,4.33,0,0,1,2.51.61,2.68,2.68,0,0,1,1,2l-2.51.14a1.27,1.27,0,0,0-.42-.84,1.3,1.3,0,0,0-.88-.27,1,1,0,0,0-.69.2.6.6,0,0,0-.24.48.5.5,0,0,0,.19.37,2.21,2.21,0,0,0,.89.31,11.5,11.5,0,0,1,2.5.76,2.6,2.6,0,0,1,1.09,1,2.38,2.38,0,0,1,.35,1.27,2.74,2.74,0,0,1-.46,1.52,2.91,2.91,0,0,1-1.28,1.06,5.12,5.12,0,0,1-2.07.36,4.21,4.21,0,0,1-3-.85A3.35,3.35,0,0,1,134.38,102.8Z" fill="#e6e6e6"></path><path d="M143.51,97.05h7.11v1.84h-4.45v1.36h4.13V102h-4.13v1.7h4.58v1.94h-7.24Z" fill="#e6e6e6"></path><path d="M157.46,104.22h-3l-.42,1.42h-2.71l3.23-8.59h2.89l3.23,8.59h-2.78Zm-.55-1.85L156,99.28l-.94,3.09Z" fill="#e6e6e6"></path><path d="M161.55,105.64V97.05H166a6.43,6.43,0,0,1,1.88.21,2,2,0,0,1,1.05.78,2.38,2.38,0,0,1,.4,1.4,2.34,2.34,0,0,1-.31,1.23,2.3,2.3,0,0,1-.83.84,3.16,3.16,0,0,1-.94.34,2.74,2.74,0,0,1,.7.32,3.33,3.33,0,0,1,.42.45,3.08,3.08,0,0,1,.37.53l1.29,2.49h-3L165.58,103a2.17,2.17,0,0,0-.48-.67,1.13,1.13,0,0,0-.65-.19h-.24v3.48Zm2.66-5.11h1.12a4,4,0,0,0,.71-.12.7.7,0,0,0,.43-.26.83.83,0,0,0,.16-.5.78.78,0,0,0-.26-.64,1.6,1.6,0,0,0-1-.22h-1.17Z" fill="#e6e6e6"></path><path d="M176.35,102.13l2.32.7a4.22,4.22,0,0,1-.73,1.63,3.24,3.24,0,0,1-1.25,1,4.6,4.6,0,0,1-1.91.34,5.5,5.5,0,0,1-2.28-.41A3.61,3.61,0,0,1,171,104a4.84,4.84,0,0,1-.64-2.62,4.49,4.49,0,0,1,1.13-3.28,5.19,5.19,0,0,1,5.76-.49,3.85,3.85,0,0,1,1.38,2l-2.34.52a2.13,2.13,0,0,0-.26-.58,1.48,1.48,0,0,0-.54-.46,1.59,1.59,0,0,0-.72-.17,1.55,1.55,0,0,0-1.39.73,3.1,3.1,0,0,0-.36,1.69,3.24,3.24,0,0,0,.43,2,1.71,1.71,0,0,0,2.37.1A2.7,2.7,0,0,0,176.35,102.13Z" fill="#e6e6e6"></path><path d="M180,97.05h2.65v3h2.9v-3h2.67v8.59h-2.67v-3.47h-2.9v3.47H180Z" fill="#e6e6e6"></path></svg>