<svg id="Layer_1" data-name="Layer 1" xmlns="http://www.w3.org/2000/svg" viewBox="0 0 400 300" width="406" height="306" class="illustration"><title>_</title><ellipse cx="204.29" cy="237.07" rx="143.06" ry="11.56" fill="#e6e6e6" opacity="0.45"></ellipse><path d="M201.45,70.41s11.57-7.28,31.49,8.64,25.53-26,47.49-16.27,6.64,25.06,38.29,27.6,34.3,9.13,32.73,33.41-28.11,18.1-21,41.87S316.17,194.53,298.81,193s-19.4-30.66-42.38-21.71-30.3-10-55,5.87l-48.61-14.35-38.48-20-5.81-42.46,38.92-20Z" fill="#e6e6e6" opacity="0.3"></path><polygon points="93.66 63.1 93.23 84.67 105.14 84.06 100.67 68.61 93.66 63.1" fill="#f4a28c"></polygon><path d="M101.79,72a7.83,7.83,0,0,1-4.14-1.75s.71,3.89,5.54,7.15Z" fill="#ce8172" opacity="0.31"></path><path d="M105.5,60.62s1.1,6.49.35,10.93a3.3,3.3,0,0,1-3.83,2.7c-2.23-.41-5.13-1.61-6.14-5l-2.42-5.57a5.92,5.92,0,0,1,2.08-6.51C99,54.19,105,56.63,105.5,60.62Z" fill="#f4a28c"></path><path d="M99,66.8s-.25-2.52-2.13-2.17-1.54,4,1.06,4.12Z" fill="#f4a28c"></path><path d="M106,64.74l2,2.38a1.06,1.06,0,0,1-.53,1.71L105,69.5Z" fill="#f4a28c"></path><path d="M96,80.73s29.22,9.3,22.47,29.45c-4.89,14.59-12.55,12.36-13.84,23.85l-1.41,11.33-29.62-7.17s2.56-16.6.09-27.39S64,73.2,96,80.73Z" fill="#68e1fd"></path><path d="M88.65,87.46s11.94,15,3,31.45c-1.52,2.79-2.83,5.69-4.1,8.6L82,140.22l-8.39-2,.78-7Z" opacity="0.09"></path><path d="M96.85,64.63s9,18.94,2.88,23-17.45,3.91-19.41-4.27,6-10.7,5.44-22.28,21.68-12,22.29-5.38S96.85,64.63,96.85,64.63Z" fill="#ffd200"></path><polygon points="92.71 171.33 127.17 231.96 131.9 230.93 112.89 164.85 92.71 171.33" fill="#f4a28c"></polygon><path d="M74.66,167l9.86,25.65-20.63-10-2.53,4.68s23.52,24.56,36.77,18.28-4.88-47.46-4.88-47.46Z" fill="#f4a28c"></path><path d="M74.59,137.87l32,4.26,11.37,34.94-41,6S62.2,157.8,74.59,137.87Z" fill="#24285b"></path><path d="M131.55,231s3.33,2.74,6.62,1.85,4.82,3.71-.65,4.39a30.44,30.44,0,0,1-5.13.23,8.88,8.88,0,0,0-4.48,1.15,1.5,1.5,0,0,1-1.67-.28c-1.91-1.46.93-6.39.93-6.39Z" fill="#68e1fd"></path><path d="M61.81,187.32s-4.23.82-5.65,3.93-5.93,1.34-3-3.31a30.42,30.42,0,0,1,3.09-4.09,9,9,0,0,0,2-4.19,1.48,1.48,0,0,1,1.27-1.1c2.34-.55,4.36,4.06,4.36,4.06Z" fill="#68e1fd"></path><path d="M201.45,177.16H157c-33.27,0-60.34-23.94-60.34-53.37S123.74,70.41,157,70.41h44.44v23H157c-20.59,0-37.34,13.63-37.34,30.38s16.75,30.37,37.34,30.37h44.44Z" fill="#c9c9c9"></path><rect x="169.89" y="70.41" width="31.56" height="23" fill="#e6e6e6"></rect><rect x="169.89" y="154.16" width="31.56" height="23" fill="#e6e6e6"></rect><path d="M91.61,97.9C92.37,85.5,73.74,83.51,72,95.82c-.48,3.47.12,7.93,2.57,13.66,9.82,22.92,28.27,34.11,48.3,32.78l-1-5.14s-31-7.27-30.88-35.75A17.49,17.49,0,0,0,91.61,97.9Z" fill="#68e1fd"></path><path d="M91.61,97.9C92.37,85.5,73.74,83.51,72,95.82c-.48,3.47.12,7.93,2.57,13.66,9.82,22.92,28.27,34.11,48.3,32.78l-1-5.14s-31-7.27-30.88-35.75A17.49,17.49,0,0,0,91.61,97.9Z" fill="#fff" opacity="0.46"></path><path d="M122.12,138a3.47,3.47,0,0,1,3.1-1.09c1.8.38,4.78,5.37-2.31,5.31Z" fill="#f4a28c"></path><path d="M121.07,115s2.82,5-1.32,6.41S116.3,115.56,121.07,115Z" fill="#f4a28c"></path><circle cx="314.58" cy="128.89" r="23.09" fill="#e6e6e6" opacity="0.45"></circle><path d="M311.5,118.29a20.53,20.53,0,0,0-.38,5.46,1.66,1.66,0,0,0,1.87,1.42,3.65,3.65,0,0,0,3.16-2.39l1.32-2.74a3,3,0,0,0-.92-3.3C314.86,115.2,311.81,116.3,311.5,118.29Z" fill="#f4a28c"></path><polygon points="317.23 120.53 317.66 131.32 311.7 131.13 313.78 123.36 317.23 120.53" fill="#f4a28c"></polygon><path d="M312.3,118.52a13,13,0,0,0,3,.13,2.73,2.73,0,0,0-.35,3,2.23,2.23,0,0,0,2.57,1.21c.21-2,.68-4.1.38-6.06a3.93,3.93,0,0,0-1-2.21,2.74,2.74,0,0,0-2.8-.57,3.73,3.73,0,0,0-2.49,3.18C311.49,118,311.38,118.36,312.3,118.52Z" fill="#24285b"></path><path d="M314.65,121.5s.17-1.25,1.11-1,.69,2-.62,2Z" fill="#f4a28c"></path><path d="M311.18,120.34l-1.06,1.16a.53.53,0,0,0,.23.86l1.23.38Z" fill="#f4a28c"></path><path d="M313.25,125a3.9,3.9,0,0,0,2.05-.91,6.19,6.19,0,0,1-2.7,3.63Z" fill="#ce8172" opacity="0.31"></path><path d="M330.13,146s.36-14.49-15.27-15.24-15.22,15.88-15.22,15.88S314.39,160,330.13,146Z" fill="#68e1fd"></path><circle cx="259.72" cy="153.8" r="23.09" fill="#e6e6e6" opacity="0.45"></circle><path d="M260.92,142.83a20.27,20.27,0,0,0-2.43,4.9,1.65,1.65,0,0,0,1.18,2,3.68,3.68,0,0,0,3.84-1l2.26-2a3,3,0,0,0,.41-3.4C265.21,141.25,262,141.11,260.92,142.83Z" fill="#f4a28c"></path><polygon points="265.36 147.09 261.63 157.22 256.19 154.77 261.09 148.38 265.36 147.09" fill="#f4a28c"></polygon><path d="M261.57,143.34a13,13,0,0,0,2.77,1.28,2.76,2.76,0,0,0-1.48,2.64,2.23,2.23,0,0,0,1.93,2.09l2-3.72a3.34,3.34,0,0,0,0-3.44,11.88,11.88,0,0,0-.89-1.29c-.83-1-2.78-1.19-3.34-2.44a.79.79,0,0,0-1.35-.16c-.79,1-1.58,2.91-.41,4.38A3.08,3.08,0,0,0,261.57,143.34Z" fill="#24285b"></path><path d="M262.6,147s.64-1.1,1.43-.55-.13,2.14-1.35,1.66Z" fill="#f4a28c"></path><path d="M259.85,144.6l-1.43.66a.53.53,0,0,0-.11.89l1,.82Z" fill="#f4a28c"></path><path d="M260,149.73a3.83,3.83,0,0,0,2.24-.06,6.17,6.17,0,0,1-3.88,2.33Z" fill="#ce8172" opacity="0.31"></path><path d="M267.57,175.5s5.87-13.25-8.29-19.92-20.13,8.86-20.13,8.86S247.64,182.5,267.57,175.5Z" fill="#68e1fd"></path><circle cx="266.81" cy="89.91" r="23.09" fill="#e6e6e6" opacity="0.45"></circle><path d="M262,80a20.27,20.27,0,0,0,.55,5.45,1.65,1.65,0,0,0,2.08,1.08,3.65,3.65,0,0,0,2.71-2.9l.83-2.92a3,3,0,0,0-1.46-3.09C264.76,76.37,262,78,262,80Z" fill="#f4a28c"></path><polygon points="268 81.23 270.26 91.79 264.35 92.62 265.08 84.6 268 81.23" fill="#f4a28c"></polygon><path d="M265.62,82.62s0-1.26.92-1.22,1,1.88-.26,2.12Z" fill="#f4a28c"></path><path d="M262,82.07l-.85,1.32a.53.53,0,0,0,.38.81l1.27.17Z" fill="#f4a28c"></path><path d="M264.85,86.35a3.9,3.9,0,0,0,1.86-1.25,6.18,6.18,0,0,1-2,4Z" fill="#ce8172" opacity="0.31"></path><path d="M285,104.08s-2.12-14.34-17.65-12.42-12.29,18.23-12.29,18.23S271.91,120.63,285,104.08Z" fill="#68e1fd"></path><path d="M264.58,80.65l-4.86.4A5.19,5.19,0,0,1,263,76.33c3.27-1.17,5.52.35,6.39,3.84s-.47,5.28-.47,5.28S264.58,86.29,264.58,80.65Z" fill="#24285b"></path><path d="M266.66,76.28s4.22.11,5.28,6.27,6.4,8.3,3.06,12.69-10.17,3.08-8.33-2.38-2.72-6.52-2.09-12.21S266.66,76.28,266.66,76.28Z" fill="#24285b"></path><polygon points="208.73 159.19 222.15 169.7 222.44 164.16 233.7 168.84 218.64 156.22 218.31 162.66 208.73 159.19" fill="#ffd200"></polygon><polygon points="208.73 83.69 222.15 94.2 222.44 88.66 233.7 93.34 218.64 80.72 218.31 87.16 208.73 83.69" fill="#ffd200"></polygon><rect x="260.42" y="228.34" width="40.74" height="6.44" fill="#e6e6e6"></rect><rect x="270.34" y="221.87" width="30.82" height="6.44" fill="#c9c9c9"></rect><path d="M297.71,220.39s-11.39-3.11-13.86-13.72c0,0,17.64-3.56,18.15,14.65Z" fill="#68e1fd" opacity="0.58"></path><path d="M299.11,219.26s-8-12.58-1-24.35c0,0,13.42,8.53,7.46,24.37Z" fill="#68e1fd" opacity="0.73"></path><path d="M301.16,219.27s4.2-13.29,16.91-15.81c0,0,2.39,8.63-8.23,15.84Z" fill="#68e1fd"></path><polygon points="292.9 218.97 295.21 234.76 309.75 234.82 311.89 219.05 292.9 218.97" fill="#24285b"></polygon></svg>